# xmcd CD database file generated by Grip 3.2.0
# 
# Track frame offsets:
#       150
#       11337
#       17427
#       54567
#       71585
#       79950
#       112840
#       137417
#       141325
#       161942
#       166390
#       201565
#       266150
#       271765
# 
# Disc length: 3826 seconds
# 
# Revision: 1
# Processed by: cddbd v1.5.1PL0 Copyright (c) Steve Scherf et al.
# Submitted via: Grip 3.2.0
# 
DISCID=c30ef00e
DTITLE=Stomu Yamashta - Go Live from Paris
DYEAR=1978
DGENRE=Jazz
TTITLE0=Space Song
TTITLE1=Carnival
TTITLE2=Windspin
TTITLE3=Ghost Machine
TTITLE4=Surfspin
TTITLE5=Time is Here
TTITLE6=Winner/Loser
TTITLE7=Solitude
TTITLE8=Nature
TTITLE9=Air Voice
TTITLE10=Crossing the Line
TTITLE11=Man of Leo
TTITLE12=Stellar
TTITLE13=Space Requiem
EXTD=YEAR: 1978
EXTT0=
EXTT1=
EXTT2=
EXTT3=
EXTT4=
EXTT5=
EXTT6=
EXTT7=
EXTT8=
EXTT9=
EXTT10=
EXTT11=
EXTT12=
EXTT13=
PLAYORDER=
